<svg xmlns="http://www.w3.org/2000/svg" width="33" height="33" viewBox="0 0 33 33">
    <g data-name="Edit icon" transform="translate(-316 -332)">
        <circle data-name="Ellipse 638" cx="16.5" cy="16.5" r="16.5" transform="translate(316 332)" style="fill:#fff"/>
        <circle data-name="Ellipse 637" cx="14.5" cy="14.5" r="14.5" transform="translate(318 334)" style="fill:#ebebeb"/>
        <path data-name="Path 16301" d="M8.92 82.473.972 90.421a.317.317 0 0 0-.083.145L.009 94.1a.313.313 0 0 0 .3.389.31.31 0 0 0 .076-.009l3.539-.88a.313.313 0 0 0 .145-.082l7.949-7.948zm0 0" transform="translate(325.278 261.225)" style="fill:#585858"/>
        <path data-name="Path 16302" d="m338.509 1.575-.884-.885a1.6 1.6 0 0 0-2.213 0l-1.084 1.084 3.1 3.1 1.084-1.084a1.565 1.565 0 0 0 0-2.213zm0 0" transform="translate(.756 341.039)" style="fill:#585858"/>
    </g>
</svg>
