<svg xmlns="http://www.w3.org/2000/svg" width="22.427" height="14.497" viewBox="0 0 22.427 14.497">
    <g transform="translate(-448.608 -368.253)">
        <circle data-name="Ellipse 583" cx="3.453" cy="3.453" r="3.453" transform="translate(456.368 372.051)" style="fill:#b7b7b7"/>
        <path data-name="Path 16261" d="M22.083 98.16c-2.654-3.207-6.671-6.294-10.869-6.294S3 94.955.345 98.16a1.5 1.5 0 0 0 0 1.913 22.476 22.476 0 0 0 3.932 3.72c4.7 3.423 9.163 3.43 13.875 0a22.476 22.476 0 0 0 3.932-3.72 1.5 1.5 0 0 0-.001-1.913zm-10.869-3.877a4.834 4.834 0 1 1-4.834 4.834 4.839 4.839 0 0 1 4.834-4.834z" transform="translate(448.607 276.387)" style="fill:#b7b7b7"/>
    </g>
</svg>
